 <svg version="1.0" xmlns="http://www.w3.org/2000/svg"  width="300.000000pt" height="300.000000pt" viewBox="0 0 300.000000 300.000000"  preserveAspectRatio="xMidYMid meet">  <g transform="translate(0.000000,300.000000) scale(0.100000,-0.100000)" fill="#000000" stroke="none"> <path d="M1662 2798 c-11 -13 -25 -42 -30 -66 -6 -24 -17 -51 -26 -61 -9 -10 -16 -25 -16 -34 0 -21 -3 -21 -42 3 -43 26 -74 25 -117 -4 -20 -13 -79 -49 -131 -79 -154 -90 -284 -170 -400 -246 -71 -47 -73 -63 -21 -217 51 -153 56 -184 41 -240 -14 -50 -35 -64 -98 -64 -53 0 -110 -18 -134 -42 -19 -19 -20 -29 -16 -129 l6 -109 -40 -7 c-22 -3 -59 -21 -83 -38 -56 -44 -79 -55 -108 -55 -26 0 -67 -38 -67 -62 0 -8 19 -33 43 -56 64 -62 101 -112 109 -146 4 -17 14 -60 22 -96 8 -36 18 -78 21 -95 4 -16 10 -39 15 -50 5 -11 11 -33 15 -50 3 -16 10 -48 16 -70 6 -22 13 -52 16 -67 6 -33 27 -52 75 -67 23 -8 51 -29 74 -58 l38 -46 99 7 c97 6 249 26 357 46 330 61 557 117 792 195 224 74 421 151 442 173 9 10 20 39 25 64 5 28 21 62 40 84 32 40 37 62 22 92 -5 9 -14 37 -21 62 -7 25 -16 53 -21 62 -5 10 -9 25 -9 34 0 9 -6 28 -14 42 -8 15 -19 47 -26 72 -7 25 -16 53 -21 62 -5 10 -9 26 -9 35 0 10 -7 27 -15 37 -8 11 -15 27 -15 36 0 27 -34 50 -73 50 -36 0 -67 21 -67 45 0 8 -11 49 -25 93 -27 86 -76 169 -147 249 l-46 52 20 78 c15 59 31 94 63 137 28 38 41 64 38 77 -7 25 -59 69 -82 69 -21 0 -46 26 -56 58 -3 12 -18 36 -32 52 -27 32 -67 39 -117 21 -22 -9 -26 -6 -44 27 -10 20 -28 39 -38 41 -30 5 -44 21 -44 51 0 61 -95 93 -138 48z m105 -28 c9 -12 8 -19 -3 -31 -13 -15 -13 -17 1 -22 8 -4 15 -18 15 -33 0 -25 2 -26 41 -20 27 4 38 3 34 -4 -3 -5 -3 -29 0 -53 6 -41 8 -43 41 -43 19 0 34 4 34 9 0 4 -5 5 -11 1 -7 -4 -10 -1 -7 7 3 8 10 15 16 15 7 1 13 2 15 4 1 1 16 4 34 6 26 4 35 0 49 -20 9 -14 14 -32 11 -40 -6 -14 22 -50 45 -59 19 -7 -5 -43 -26 -39 -13 2 -16 -4 -14 -28 1 -16 5 -30 8 -30 13 1 28 17 31 35 2 11 15 25 29 32 20 10 27 9 41 -2 8 -8 21 -15 28 -15 16 0 10 -42 -6 -48 -7 -2 -13 5 -14 15 0 15 -2 14 -9 -4 -6 -16 -15 -21 -27 -17 -16 5 -16 4 1 -10 19 -15 19 -16 -5 -40 -33 -33 -81 -227 -58 -234 23 -7 114 -105 143 -154 35 -61 76 -179 76 -223 0 -47 34 -69 95 -63 51 6 60 2 39 -19 -17 -18 -14 -38 7 -38 20 0 30 -17 17 -32 -12 -15 -3 -47 11 -38 15 8 25 -15 12 -28 -18 -18 -13 -37 9 -37 21 0 28 -24 10 -35 -17 -11 -11 -25 15 -35 24 -9 35 -30 15 -30 -5 0 -10 -9 -10 -20 0 -13 7 -20 20 -20 21 0 28 -24 10 -35 -18 -11 -11 -35 10 -35 22 0 25 -12 10 -41 -9 -16 -7 -21 15 -29 32 -12 32 -24 0 -38 -35 -16 -65 -70 -65 -117 l0 -41 -117 -46 c-455 -180 -968 -306 -1424 -352 l-127 -12 -18 33 c-21 40 -72 74 -114 75 -38 1 -48 15 -24 34 18 13 18 15 -5 34 -19 16 -21 23 -11 35 15 18 6 45 -15 45 -8 0 -15 7 -15 15 0 8 5 15 10 15 18 0 10 27 -13 44 -15 12 -18 18 -9 22 17 8 15 44 -2 44 -24 0 -29 20 -10 36 18 13 18 15 -9 35 -26 20 -27 22 -10 35 17 13 17 15 -6 34 -18 16 -21 24 -13 32 18 18 14 36 -8 43 -29 9 -25 22 9 28 45 9 93 67 56 67 -8 0 -15 7 -15 15 0 23 -28 18 -36 -7 -4 -15 -1 -25 12 -35 9 -7 14 -16 10 -20 -4 -4 -11 -1 -16 7 -8 12 -10 12 -15 -2 -10 -24 -59 -18 -63 7 -8 57 -12 62 -35 58 -27 -5 -60 27 -51 50 4 12 17 16 45 15 42 -1 49 -11 21 -27 -16 -10 -16 -10 0 -11 20 0 34 19 30 43 -2 11 3 17 16 17 11 0 28 11 38 25 25 34 69 51 89 35 12 -10 16 -9 22 6 5 13 19 20 42 21 47 2 74 43 28 43 -39 0 -47 18 -47 111 0 68 3 88 15 93 21 8 175 26 199 23 16 -2 22 10 36 73 9 42 25 88 35 103 18 28 54 43 79 34 25 -10 97 24 92 42 -3 9 -10 34 -15 57 -11 43 -12 43 -116 34 -20 -1 -20 -1 0 -10 28 -12 37 -12 30 0 -3 6 -1 10 4 10 6 0 11 -5 11 -11 0 -5 4 -8 9 -4 5 3 12 1 15 -3 3 -5 -10 -14 -29 -20 -28 -8 -35 -7 -35 3 0 8 -7 11 -19 8 -14 -4 -18 1 -17 18 1 18 9 25 36 30 20 4 37 3 41 -2 3 -6 60 8 135 32 71 22 140 44 154 48 18 5 26 16 28 36 3 22 0 26 -12 22 -20 -8 -20 3 -1 39 17 34 15 37 -18 25 -15 -6 -35 -27 -46 -49 -11 -22 -28 -42 -38 -45 -10 -2 -26 -8 -36 -12 -18 -7 -17 -5 2 34 12 22 20 41 18 41 -2 0 -18 -5 -34 -11 -21 -7 -36 -23 -48 -49 -12 -27 -27 -42 -48 -50 -17 -5 -32 -9 -34 -7 -1 2 5 22 14 44 16 37 23 42 88 63 38 12 93 31 120 41 28 11 56 19 62 19 7 0 19 13 27 29 8 15 27 36 41 45 15 10 24 20 21 23 -3 3 -1 14 5 24 7 15 6 19 -6 19 -8 0 -23 -18 -32 -40 -10 -22 -23 -38 -30 -36 -6 3 -14 -2 -17 -10 -9 -23 -26 -16 -26 10 0 16 -7 26 -21 29 -15 4 -20 11 -15 22 9 24 -40 39 -76 24 -36 -15 -36 -26 2 -34 36 -8 37 -14 4 -39 -24 -17 -28 -17 -66 -3 -37 15 -41 15 -70 -3 l-31 -18 42 -13 c22 -7 41 -15 41 -18 0 -3 -16 -14 -35 -23 -31 -16 -38 -16 -70 -2 -32 13 -38 13 -60 -2 -14 -9 -28 -14 -32 -11 -3 4 9 14 26 24 18 10 61 36 96 58 34 22 76 48 91 57 16 10 70 45 119 78 163 109 192 117 242 70 12 -11 26 -20 32 -20 5 0 11 -7 15 -15 8 -22 21 -18 23 6 1 12 10 30 19 40 15 17 13 24 -8 20 -13 -2 -9 11 9 31 27 30 103 17 103 -17 0 -8 4 -15 9 -15 18 0 21 18 10 44 -10 20 -19 26 -45 26 -35 0 -65 32 -44 45 6 4 8 10 5 15 -8 13 26 29 55 27 14 -1 30 -8 37 -17z m-437 -385 c7 -9 11 -17 9 -19 -14 -13 -150 -52 -146 -43 2 7 17 18 33 26 16 8 40 22 53 33 29 22 35 22 51 3z m-327 -95 c30 -11 36 -18 31 -35 -9 -28 -7 -27 -47 -10 -51 21 -94 20 -94 -2 0 -31 16 -43 43 -32 37 13 42 12 70 -18 19 -21 27 -24 37 -14 9 10 8 11 -5 6 -13 -5 -18 -2 -18 10 0 11 5 15 16 11 11 -4 14 -1 9 13 -4 14 1 20 21 25 32 8 44 1 14 -9 -18 -6 -21 -12 -16 -36 5 -25 2 -30 -19 -35 -14 -3 -25 -10 -25 -14 0 -8 -45 -22 -82 -25 -33 -3 -29 -13 7 -19 20 -4 35 -13 35 -21 0 -19 39 -45 68 -45 12 0 33 7 46 15 23 15 24 15 35 -15 13 -38 0 -45 -63 -37 -39 6 -47 3 -74 -23 -17 -15 -32 -37 -34 -47 -3 -11 -9 -2 -18 27 -7 25 -29 97 -49 160 -19 63 -36 119 -36 123 0 8 96 66 105 63 3 0 22 -8 43 -16z"/> <path d="M1710 2615 c0 -21 -5 -25 -27 -25 -24 -1 -26 -2 -12 -13 9 -7 18 -19 22 -27 4 -11 6 -11 6 -2 1 21 28 42 45 36 9 -3 16 -1 16 5 0 6 -4 11 -9 11 -5 0 -11 9 -14 20 -7 28 -27 25 -27 -5z"/> <path d="M1429 2592 c-14 -9 -24 -22 -22 -29 2 -7 0 -21 -6 -32 -9 -17 -15 -18 -41 -8 -25 9 -33 9 -47 -6 -14 -14 -15 -17 -2 -17 8 0 22 -9 32 -20 18 -21 37 -26 37 -10 0 6 7 10 15 10 8 0 15 7 15 15 0 8 5 15 11 15 5 0 15 14 20 30 6 17 18 30 26 30 16 0 14 32 -2 36 -5 1 -22 -5 -36 -14z"/> <path d="M1793 2576 c-13 -6 -23 -16 -23 -23 0 -7 -7 -13 -15 -13 -17 0 -21 -35 -5 -45 6 -4 8 -11 4 -16 -4 -6 -11 -6 -20 2 -8 6 -17 9 -21 5 -3 -3 -1 -6 5 -6 6 0 18 -13 27 -29 14 -29 14 -30 -8 -29 -12 1 -27 5 -32 9 -10 7 -47 -13 -46 -25 3 -22 0 -30 -7 -20 -17 24 -40 23 -47 -3 -7 -30 14 -51 30 -29 11 14 45 18 45 4 0 -4 -10 -8 -22 -8 -17 0 -19 -3 -9 -9 9 -6 10 -11 2 -15 -6 -4 -11 -2 -11 3 0 6 -3 10 -7 9 -5 -1 -19 2 -32 6 -17 6 -28 3 -40 -9 -9 -10 -10 -15 -3 -11 6 4 12 3 12 -2 0 -5 17 -12 38 -15 20 -3 45 -8 55 -12 15 -6 18 -3 15 21 -2 22 1 29 14 28 10 -1 15 3 12 8 -4 6 2 7 17 3 32 -10 32 -10 24 -34 -4 -12 -12 -18 -21 -14 -7 3 -14 1 -14 -5 0 -15 37 -21 49 -9 8 8 11 8 11 -1 0 -17 27 -15 33 3 4 8 1 17 -5 21 -6 4 -8 3 -4 -4 3 -6 2 -13 -4 -17 -6 -3 -13 2 -16 12 -3 10 -10 26 -15 35 -12 23 -11 31 1 23 6 -3 10 -2 10 4 0 6 16 9 40 7 25 -3 43 1 51 10 12 15 49 19 49 6 0 -12 31 -8 55 6 20 11 20 11 -2 27 -19 14 -21 19 -10 35 15 25 27 26 20 1 -3 -11 2 -21 11 -24 18 -7 19 -2 7 28 -5 11 -4 28 1 38 6 13 5 17 -7 17 -9 0 -21 -14 -27 -30 -11 -33 -32 -35 -34 -4 -2 39 -4 44 -19 44 -8 0 -15 -7 -15 -15 0 -8 -4 -15 -10 -15 -5 0 -10 -5 -10 -12 0 -9 3 -9 12 0 7 7 18 12 25 12 11 0 11 -5 3 -20 -8 -14 -7 -25 2 -39 14 -23 8 -34 -16 -25 -9 3 -16 17 -16 31 0 13 -4 21 -10 18 -5 -3 -10 -17 -10 -29 0 -32 -25 -53 -44 -37 -8 7 -16 8 -18 3 -1 -5 -13 -13 -25 -16 -35 -11 -29 20 7 39 30 16 42 32 16 22 -8 -3 -20 1 -28 10 -11 14 -10 15 12 8 23 -7 24 -7 8 16 -18 28 -8 72 15 63 9 -3 16 3 20 15 6 26 -2 30 -30 17z"/> <path d="M1953 2566 c-13 -13 -23 -27 -23 -30 0 -12 25 -1 38 17 22 28 9 38 -15 13z"/> <path d="M1511 2558 c0 -9 -13 -21 -28 -27 l-28 -11 28 5 c27 5 37 -8 16 -20 -6 -4 -8 -13 -5 -21 3 -8 1 -14 -4 -14 -6 0 -10 -9 -10 -21 0 -28 17 -15 35 28 8 20 23 42 33 49 9 7 13 16 8 21 -5 4 -11 2 -13 -4 -7 -20 -21 -15 -26 10 -2 13 -5 15 -6 5z"/> <path d="M1570 2525 c-11 -13 -9 -15 11 -13 18 2 24 -2 24 -17 0 -11 -8 -21 -17 -23 -11 -2 -18 3 -18 13 0 9 -4 14 -9 11 -5 -3 -7 -15 -4 -27 7 -25 41 -22 57 6 6 10 20 27 31 36 24 21 12 38 -15 21 -24 -15 -33 -15 -25 -2 10 16 -21 12 -35 -5z"/> <path d="M1672 2507 c-34 -24 -39 -36 -20 -55 15 -15 28 -16 28 -2 0 6 -7 10 -15 10 -13 0 -14 2 -3 14 7 8 16 12 19 10 4 -2 9 3 13 11 3 9 12 12 23 9 11 -4 14 -2 8 3 -5 4 -12 11 -16 15 -3 4 -19 -3 -37 -15z"/> <path d="M1560 2430 c0 -17 -38 -50 -43 -37 -2 7 -9 1 -16 -12 -8 -14 -9 -21 -2 -17 7 4 11 -1 11 -13 0 -25 2 -25 41 -5 29 15 30 16 12 29 -10 8 -13 15 -8 15 10 0 20 50 10 50 -3 0 -5 -4 -5 -10z"/> <path d="M2010 2380 c0 -6 5 -10 11 -10 5 0 7 -5 3 -11 -4 -7 0 -10 10 -7 24 4 22 20 -3 30 -12 4 -21 3 -21 -2z"/> <path d="M1916 2349 c-30 -23 -34 -39 -9 -39 9 0 14 -3 10 -6 -3 -4 -20 -2 -36 4 -20 7 -31 7 -31 1 0 -5 -10 -14 -22 -19 -16 -6 6 -9 75 -9 58 -1 97 3 97 9 0 6 -6 10 -14 10 -17 0 -28 38 -13 43 14 4 0 27 -17 27 -7 0 -25 -9 -40 -21z"/> <path d="M1405 2273 c3 -77 5 -344 3 -393 -5 -112 4 -442 11 -435 5 6 11 201 13 452 3 441 2 453 -27 453 -2 0 -2 -35 0 -77z"/> <path d="M2045 2330 c4 -6 1 -17 -5 -25 -14 -17 -3 -20 19 -6 15 10 8 41 -9 41 -6 0 -8 -5 -5 -10z"/> <path d="M1486 1903 c-4 -224 -10 -416 -13 -427 -4 -16 -1 -18 23 -12 16 4 30 9 32 10 4 4 43 818 40 821 -2 2 -19 6 -39 10 l-36 7 -7 -409z"/> <path d="M1660 2237 c0 -37 -24 -357 -49 -642 -5 -55 -8 -101 -7 -102 1 -1 18 3 37 8 l36 11 22 197 c12 108 26 230 31 271 22 178 32 281 29 284 -2 2 -25 6 -51 9 l-48 7 0 -43z m61 -19 c1 -7 0 -17 -1 -23 -1 -5 -4 -29 -6 -53 -4 -47 -23 -94 -24 -59 0 10 5 27 10 37 6 10 7 21 2 24 -10 6 -2 86 9 86 5 0 10 -6 10 -12z"/> <path d="M2014 2234 c-4 -20 -34 -176 -68 -345 -33 -170 -60 -309 -58 -309 16 0 42 25 42 40 0 11 18 101 40 200 22 99 42 215 45 258 3 42 10 101 15 131 12 66 12 61 0 61 -5 0 -12 -16 -16 -36z"/> <path d="M1860 2251 c0 -6 -23 -166 -51 -356 -28 -191 -49 -349 -46 -351 2 -2 17 1 33 6 l30 11 58 332 c31 183 59 340 62 350 5 14 -2 17 -40 17 -25 0 -46 -4 -46 -9z m70 -6 c0 -13 -91 -517 -104 -575 -28 -129 -16 -26 34 295 12 72 25 157 29 190 10 68 19 95 32 95 5 0 9 -2 9 -5z"/> <path d="M1349 2182 c-20 -10 -34 -22 -32 -27 4 -14 -78 -39 -86 -26 -10 15 -93 -8 -87 -24 2 -7 10 -33 17 -56 7 -24 13 -45 14 -46 1 -2 43 11 94 27 50 17 98 30 106 30 12 0 15 15 15 70 0 39 -1 70 -2 69 -2 0 -19 -8 -39 -17z m11 -72 c0 -28 -33 -60 -47 -46 -3 3 -23 -4 -44 -14 -47 -25 -75 -25 -84 -2 -23 51 -10 64 55 56 38 -5 49 -2 74 20 35 29 46 26 46 -14z"/> <path d="M2038 2031 c-3 -33 0 -41 17 -45 33 -9 75 -7 75 4 0 10 -70 79 -81 80 -4 0 -9 -18 -11 -39z"/> <path d="M1270 2014 c-52 -18 -108 -36 -124 -40 -17 -3 -36 -13 -43 -20 -17 -16 -9 -18 122 -34 50 -6 107 -13 128 -16 23 -4 37 -2 37 5 0 6 -8 8 -17 5 -17 -5 -17 -5 0 9 21 18 25 128 5 126 -7 -1 -56 -16 -108 -35z m95 -24 c-1 -24 -3 -25 -57 -24 -90 2 -103 13 -38 34 73 24 95 22 95 -10z m-130 -49 c53 -11 5 -12 -55 -2 -34 6 -37 9 -15 9 17 1 48 -3 70 -7z"/> <path d="M2090 1960 c0 -5 13 -23 29 -40 24 -27 52 -88 57 -125 0 -5 6 -23 12 -38 7 -16 12 -34 12 -42 0 -8 7 -11 20 -8 27 7 32 17 24 49 l-7 27 -19 -24 -19 -24 7 47 c8 62 -1 106 -29 141 -21 26 -87 54 -87 37z"/> <path d="M1077 1906 c4 -19 -1 -28 -21 -38 -24 -12 -25 -16 -12 -33 13 -18 14 -18 20 3 8 24 46 31 46 8 0 -8 4 -17 9 -21 14 -8 -18 82 -33 94 -10 9 -12 6 -9 -13z"/> <path d="M2040 1914 c0 -3 12 -20 26 -39 14 -18 30 -51 36 -72 8 -25 13 -32 16 -20 2 10 0 26 -4 35 -4 9 -8 19 -8 22 -6 32 -66 100 -66 74z"/> <path d="M2000 1849 c-11 -49 -11 -65 -1 -81 9 -15 10 -23 2 -31 -8 -8 -11 -6 -11 8 0 34 -11 8 -29 -69 -17 -70 -17 -77 -2 -71 142 52 150 57 146 86 -2 16 1 31 6 34 5 4 9 12 9 18 0 8 -3 7 -9 -2 -6 -10 -12 -3 -21 25 -16 48 -57 131 -68 138 -5 3 -15 -22 -22 -55z m54 -51 c9 -18 22 -40 28 -49 9 -14 6 -22 -17 -43 -15 -14 -36 -26 -46 -26 -11 0 -24 -9 -31 -20 -7 -11 -16 -20 -20 -20 -5 0 2 16 14 35 13 19 28 35 34 35 7 0 15 8 18 17 4 10 4 14 0 10 -4 -4 -14 7 -21 24 -11 26 -10 33 2 46 8 8 12 19 9 25 -4 6 -2 8 3 5 6 -4 18 -21 27 -39z"/> <path d="M1131 1860 c9 -25 16 -30 43 -30 18 0 74 -3 124 -6 89 -7 92 -6 92 14 0 25 -5 26 -136 41 -137 16 -135 17 -123 -19z"/> <path d="M1106 1802 c-14 -3 -16 -6 -6 -12 20 -13 19 -60 -1 -60 -21 0 -43 26 -34 39 3 6 0 8 -9 5 -15 -6 -10 -39 14 -83 14 -27 13 -28 -20 -33 -31 -4 -59 44 -40 68 10 11 10 14 0 14 -9 0 -8 5 3 18 10 10 14 22 10 25 -12 13 -23 7 -23 -11 0 -10 -7 -27 -15 -38 -13 -16 -16 -17 -26 -4 -9 13 -10 13 -6 0 2 -8 12 -19 23 -25 21 -11 27 -40 13 -67 -6 -11 -6 -18 0 -18 5 0 12 6 14 13 4 8 6 7 6 -3 1 -8 -10 -20 -24 -27 -14 -6 -25 -7 -25 -2 0 5 -4 9 -10 9 -5 0 -10 -9 -10 -21 0 -11 4 -18 9 -14 5 3 13 0 17 -7 5 -8 10 -4 15 10 5 12 15 22 24 22 8 0 15 6 15 14 0 7 7 19 15 26 12 10 18 10 32 -1 9 -8 25 -12 36 -11 17 3 15 -1 -9 -22 -23 -20 -25 -25 -11 -26 9 0 17 -6 17 -14 0 -8 8 -17 17 -20 10 -4 15 -4 11 -1 -3 3 -2 22 3 42 4 21 4 44 -1 52 -4 8 -3 22 3 33 9 13 9 20 0 29 -7 7 -8 22 -4 38 11 38 0 67 -23 63z m-16 -92 c0 -5 7 -10 15 -10 17 0 20 -16 6 -25 -10 -6 -41 21 -41 36 0 5 5 9 10 9 6 0 10 -4 10 -10z"/> <path d="M1150 1726 l0 -34 93 -7 c134 -10 149 -7 152 31 l2 31 -66 7 c-36 3 -92 6 -123 6 l-58 0 0 -34z"/> <path d="M790 1723 c-57 -7 -56 -21 1 -27 65 -8 99 -5 99 7 0 5 -9 7 -19 4 -12 -3 -22 1 -25 9 -3 8 -9 13 -13 12 -4 0 -24 -3 -43 -5z"/> <path d="M2160 1700 c0 -5 -6 -7 -14 -4 -8 3 -17 0 -21 -6 -11 -18 0 -22 29 -9 26 12 35 29 16 29 -5 0 -10 -4 -10 -10z"/> <path d="M721 1643 c0 -24 1 -26 9 -8 8 18 9 17 9 -7 1 -18 6 -28 16 -28 21 0 19 -30 -2 -31 -10 -1 -21 -1 -25 0 -17 2 -7 -10 15 -18 27 -11 57 17 60 55 1 13 9 29 17 34 20 13 12 17 -47 25 l-53 7 1 -29z"/> <path d="M914 1649 c-7 -12 12 -29 34 -29 15 0 16 12 0 28 -15 15 -25 15 -34 1z"/> <path d="M2035 1581 c-354 -135 -776 -237 -1145 -275 -130 -14 -136 -15 -162 -45 -16 -17 -28 -39 -28 -49 1 -37 119 -483 134 -507 29 -44 65 -60 131 -58 60 1 335 41 475 69 337 67 914 249 981 310 11 10 24 34 30 55 11 34 6 54 -61 256 -86 259 -93 277 -126 292 -41 18 -72 12 -229 -48z m241 15 c23 -26 164 -441 164 -482 0 -41 -28 -83 -71 -105 -23 -11 -42 -19 -44 -17 -4 4 -195 593 -195 602 0 12 66 33 95 30 17 -2 40 -15 51 -28z m-67 -299 c51 -160 95 -297 97 -303 8 -20 -348 -137 -631 -208 -239 -59 -284 -68 -632 -120 -19 -3 -24 7 -47 98 -15 56 -51 195 -81 311 -30 115 -53 210 -52 211 1 1 27 5 57 8 207 24 362 52 585 106 138 33 405 115 515 159 41 16 80 30 85 30 6 1 52 -131 104 -292z m-1336 -114 c14 -60 51 -202 81 -317 l54 -208 -61 4 c-95 7 -102 19 -170 293 -32 127 -57 242 -57 256 0 33 30 60 78 69 20 4 39 8 42 9 3 0 18 -47 33 -106z"/> <path d="M2253 1473 c-7 -2 -13 -14 -13 -26 -1 -22 -1 -22 -16 -2 -16 20 -16 20 -12 0 2 -12 11 -20 23 -20 13 0 20 7 20 20 0 11 7 20 15 20 9 0 14 -8 13 -19 -1 -12 2 -15 9 -8 24 24 -5 49 -39 35z"/> <path d="M2258 1407 c-36 -14 -36 -27 1 -27 39 0 49 -18 17 -30 -27 -10 -37 -50 -13 -50 7 0 13 -11 12 -27 0 -20 6 -28 20 -31 18 -2 18 -2 3 8 -32 20 -21 33 22 26 42 -7 44 -4 30 29 -7 17 -9 17 -9 3 -1 -21 -7 -22 -50 -7 -29 10 -39 29 -16 31 6 1 15 8 21 16 14 19 35 7 27 -15 -4 -11 -3 -14 5 -9 19 12 14 37 -9 43 -16 4 -20 12 -16 29 5 26 -3 28 -45 11z"/> <path d="M2323 1225 c-18 -8 -33 -18 -33 -23 0 -5 18 -1 40 10 59 29 53 39 -7 13z"/> <path d="M1895 1356 c-33 -12 -62 -24 -63 -28 -6 -21 0 -27 25 -25 24 2 28 -3 45 -60 16 -52 21 -60 38 -56 25 7 25 16 1 86 -14 40 -16 57 -8 57 24 0 40 17 31 32 -8 13 -17 12 -69 -6z"/> <path d="M1742 1307 c-46 -14 -62 -23 -58 -33 3 -8 15 -45 26 -83 l21 -69 62 20 c70 22 71 22 64 42 -5 12 -11 12 -48 0 -34 -12 -44 -13 -50 -2 -14 22 -10 27 26 34 26 5 35 11 35 26 0 14 -5 18 -16 14 -43 -17 -61 -17 -67 -2 -5 13 4 19 38 28 40 11 58 30 38 41 -5 2 -36 -5 -71 -16z"/> <path d="M1614 1272 c-7 -4 -17 -26 -24 -49 -14 -44 -30 -57 -30 -24 0 33 -11 51 -31 51 -10 0 -19 -5 -19 -11 0 -11 41 -151 46 -157 1 -2 11 -1 22 2 14 5 18 13 14 31 -2 14 -1 32 2 42 6 15 11 13 32 -15 18 -23 34 -32 55 -32 16 0 29 2 29 4 0 3 -20 25 -45 51 -45 45 -45 46 -30 75 8 16 15 31 15 35 0 7 -23 6 -36 -3z"/> <path d="M1392 1220 c-51 -21 -54 -111 -4 -150 45 -36 132 -8 132 42 0 25 -37 24 -45 -2 -8 -26 -51 -27 -65 -1 -28 54 2 110 41 75 18 -16 49 -13 49 5 0 15 -42 41 -65 40 -11 0 -30 -4 -43 -9z"/> <path d="M1270 1194 c0 -4 10 -42 22 -85 19 -71 24 -79 45 -79 16 0 23 5 20 13 -3 6 -13 45 -23 85 -16 64 -20 72 -41 72 -13 0 -23 -3 -23 -6z"/> <path d="M1210 1185 c-8 -2 -32 -6 -53 -10 -29 -5 -37 -10 -35 -23 2 -12 11 -16 29 -14 24 3 27 -1 39 -58 13 -61 26 -77 54 -67 11 5 11 15 -5 63 -23 71 -23 71 1 77 11 3 20 12 20 21 0 15 -14 18 -50 11z"/> <path d="M2040 1054 c0 -13 -9 -25 -22 -29 l-23 -8 23 -4 c18 -4 22 -9 16 -26 -6 -21 -6 -21 13 -4 13 11 27 15 39 10 17 -6 17 -5 5 10 -11 14 -11 20 0 34 13 15 12 16 -9 11 -15 -4 -25 -1 -32 10 -8 15 -9 14 -10 -4z"/> <path d="M1830 986 c0 -9 -10 -21 -22 -26 l-23 -9 24 0 c18 -1 22 -5 18 -21 -6 -23 8 -27 17 -5 4 13 10 14 26 5 21 -11 29 3 9 15 -7 5 -4 14 8 27 18 20 17 20 -5 14 -14 -5 -29 -3 -37 4 -12 10 -15 9 -15 -4z"/> <path d="M1620 933 c0 -14 -8 -23 -22 -26 l-23 -4 23 -8 c17 -6 22 -13 19 -27 -5 -18 -4 -19 12 -4 11 10 26 14 37 10 15 -6 17 -4 7 6 -10 11 -9 18 5 33 16 19 16 19 -6 12 -17 -5 -27 -2 -37 12 -14 17 -14 17 -15 -4z"/> <path d="M1410 883 c0 -17 -6 -23 -22 -24 l-23 0 23 -10 c19 -7 22 -14 16 -31 -6 -22 -6 -22 13 -5 13 11 27 15 39 10 17 -6 18 -5 4 12 -11 14 -12 19 -2 22 6 3 12 9 12 15 0 6 -7 7 -16 4 -10 -4 -22 1 -30 11 -12 17 -13 16 -14 -4z"/> <path d="M1200 847 c0 -10 -10 -22 -22 -27 -18 -7 -19 -9 -5 -9 10 -1 17 -9 17 -22 0 -18 3 -19 15 -9 8 7 23 9 37 4 20 -6 21 -5 9 10 -12 14 -11 19 5 32 18 14 18 15 -4 9 -16 -5 -28 -1 -37 12 -14 17 -14 17 -15 0z"/> <path d="M818 1112 c-21 -2 -38 -7 -38 -13 0 -8 78 -2 88 6 8 7 -16 10 -50 7z"/> <path d="M859 1062 c22 -16 4 -34 -20 -21 -12 6 -23 8 -27 5 -3 -4 9 -12 26 -18 30 -12 49 -35 37 -47 -3 -3 -10 1 -15 9 -8 13 -10 12 -10 -2 0 -10 -7 -18 -16 -18 -11 0 -15 6 -11 20 5 21 -7 28 -18 10 -13 -21 17 -41 49 -34 42 8 52 20 35 40 -7 9 -13 26 -14 37 0 11 -7 22 -15 24 -12 4 -13 3 -1 -5z"/> <path d="M837 931 c-6 -23 5 -29 45 -23 31 5 37 17 11 25 -10 2 -25 8 -34 11 -11 5 -18 1 -22 -13z"/> <path d="M837 884 c-10 -10 12 -44 28 -44 8 0 20 9 28 21 14 20 16 20 26 2 11 -17 12 -17 9 2 -4 24 -48 35 -48 11 0 -24 -20 -29 -28 -6 -4 11 -11 18 -15 14z"/> <path d="M1145 1572 c-3 -19 -5 -35 -3 -36 2 -2 59 0 128 3 l125 6 3 33 3 34 -125 -3 -125 -3 -6 -34z"/> <path d="M1007 1583 c-4 -3 -1 -13 6 -21 10 -13 9 -15 -5 -9 -21 7 -24 -3 -6 -21 9 -9 9 -12 0 -12 -7 0 -12 -4 -12 -10 0 -5 5 -10 10 -10 6 0 19 -9 30 -20 11 -11 26 -20 33 -19 6 0 2 7 -10 16 -27 18 -28 31 -8 69 13 26 13 29 -3 36 -23 9 -28 9 -35 1z"/> <path d="M883 1553 c4 -3 2 -12 -4 -20 -9 -10 -8 -13 0 -13 7 0 10 -4 6 -10 -3 -5 -13 -7 -23 -3 -11 3 -9 -1 6 -11 29 -22 43 -13 35 25 -5 25 -3 29 13 23 16 -5 16 -4 4 5 -16 11 -48 15 -37 4z"/> <path d="M813 1538 c2 -7 -3 -19 -12 -26 -14 -12 -14 -13 2 -8 10 3 23 6 28 6 15 0 10 27 -7 34 -10 4 -14 1 -11 -6z"/> <path d="M1100 1506 c0 -23 -2 -26 -14 -17 -12 10 -13 8 -9 -8 3 -12 11 -21 18 -21 15 0 25 44 14 62 -6 9 -9 3 -9 -16z"/> <path d="M948 1488 c-19 -7 -25 -14 -21 -28 6 -22 -22 -29 -30 -7 -3 6 -6 2 -6 -10 -1 -27 33 -32 43 -7 5 13 9 14 21 4 8 -7 15 -19 15 -26 0 -8 5 -14 10 -14 6 0 9 3 8 8 0 4 2 14 6 23 4 8 1 27 -6 40 -11 22 -17 24 -40 17z"/> <path d="M1295 1480 c-33 -4 -86 -8 -117 -9 -55 -1 -57 -2 -69 -36 -16 -43 -37 -52 -48 -21 -9 22 -41 33 -41 13 0 -5 6 -7 14 -4 10 4 12 0 9 -14 -10 -39 24 -37 260 13 89 19 97 23 97 44 0 26 -1 27 -105 14z m10 -45 c-31 -12 -181 -32 -189 -25 -8 8 13 12 109 23 42 5 92 6 80 2z"/> <path d="M740 1446 c5 -5 10 -17 10 -26 0 -20 -43 -45 -59 -36 -15 10 -13 -5 4 -28 15 -20 15 -20 30 0 8 10 28 36 45 58 16 21 30 39 30 40 0 1 -16 1 -35 2 -25 1 -33 -2 -25 -10z"/> <path d="M858 1402 c-7 -27 13 -49 39 -43 l22 6 -24 28 c-28 32 -31 33 -37 9z"/> <path d="M795 1401 c-3 -6 3 -19 15 -31 24 -24 30 -25 30 -5 0 8 -7 15 -16 15 -8 0 -13 4 -9 9 3 5 1 12 -4 15 -5 4 -12 2 -16 -3z"/> <path d="M594 1379 c0 -10 4 -19 8 -19 4 0 5 -7 2 -15 -5 -11 -2 -13 10 -9 11 4 16 1 16 -10 0 -9 4 -16 8 -16 4 0 6 16 4 36 -3 28 -1 35 8 29 9 -5 11 -4 6 4 -4 7 -13 10 -19 8 -7 -2 -19 -1 -27 4 -12 5 -16 2 -16 -12z"/> <path d="M746 1355 c-7 -18 39 -21 50 -3 4 6 3 8 -4 4 -6 -3 -13 -2 -17 4 -9 15 -22 12 -29 -5z"/> <path d="M918 2183 c-9 -2 -16 -12 -15 -22 1 -20 52 -27 77 -11 12 8 13 10 1 10 -8 0 -22 6 -30 13 -9 8 -24 12 -33 10z"/> </g> </svg> 